<svg width="200" height="200" viewBox="0 0 200 200" fill="none" xmlns="http://www.w3.org/2000/svg">
<g clip-path="url(#clip0_152_2134)">
<path d="M179.167 33.3333H156.945V49.9999C156.945 51.605 156.628 53.1943 156.014 54.6772C155.4 56.1601 154.5 57.5074 153.365 58.6424C152.23 59.7773 150.883 60.6776 149.4 61.2918C147.917 61.906 146.327 62.2222 144.722 62.2222C143.117 62.2222 141.528 61.906 140.045 61.2918C138.562 60.6776 137.215 59.7773 136.08 58.6424C134.945 57.5074 134.045 56.1601 133.431 54.6772C132.816 53.1943 132.5 51.605 132.5 49.9999V33.3333H67.778V49.9999C67.778 53.2415 66.4903 56.3503 64.1982 58.6424C61.906 60.9345 58.7973 62.2222 55.5557 62.2222C52.3142 62.2222 49.2054 60.9345 46.9133 58.6424C44.6212 56.3503 43.3335 53.2415 43.3335 49.9999V33.3333H21.1113C19.7892 33.3182 18.4775 33.5685 17.2538 34.0692C16.0301 34.5699 14.9192 35.3109 13.9869 36.2484C13.0546 37.1859 12.3197 38.3009 11.8258 39.5273C11.3319 40.7538 11.0889 42.0668 11.1113 43.3888V167.722C11.0892 169.021 11.3232 170.311 11.7999 171.519C12.2766 172.728 12.9866 173.83 13.8894 174.764C14.7922 175.698 15.8702 176.444 17.0617 176.962C18.2531 177.479 19.5348 177.756 20.8335 177.778H179.167C180.466 177.756 181.747 177.479 182.939 176.962C184.13 176.444 185.208 175.698 186.111 174.764C187.014 173.83 187.724 172.728 188.2 171.519C188.677 170.311 188.911 169.021 188.889 167.722V43.3888C188.911 42.0902 188.677 40.7999 188.2 39.5916C187.724 38.3834 187.014 37.2809 186.111 36.3471C185.208 35.4133 184.13 34.6666 182.939 34.1494C181.747 33.6323 180.466 33.355 179.167 33.3333ZM55.5557 144.444H44.4446V133.333H55.5557V144.444ZM55.5557 116.667H44.4446V105.556H55.5557V116.667ZM55.5557 88.8888H44.4446V77.7777H55.5557V88.8888ZM88.8891 144.444H77.778V133.333H88.8891V144.444ZM88.8891 116.667H77.778V105.556H88.8891V116.667ZM88.8891 88.8888H77.778V77.7777H88.8891V88.8888ZM122.222 144.444H111.111V133.333H122.222V144.444ZM122.222 116.667H111.111V105.556H122.222V116.667ZM122.222 88.8888H111.111V77.7777H122.222V88.8888ZM155.556 144.444H144.445V133.333H155.556V144.444ZM155.556 116.667H144.445V105.556H155.556V116.667ZM155.556 88.8888H144.445V77.7777H155.556V88.8888Z" fill="black"/>
<path d="M55.5556 55.5555C57.029 55.5555 58.4421 54.9702 59.4839 53.9283C60.5258 52.8865 61.1111 51.4734 61.1111 50V16.6666C61.1111 15.1932 60.5258 13.7801 59.4839 12.7383C58.4421 11.6964 57.029 11.1111 55.5556 11.1111C54.0821 11.1111 52.6691 11.6964 51.6272 12.7383C50.5853 13.7801 50 15.1932 50 16.6666V50C50 51.4734 50.5853 52.8865 51.6272 53.9283C52.6691 54.9702 54.0821 55.5555 55.5556 55.5555Z" fill="black"/>
<path d="M144.444 55.5555C145.918 55.5555 147.331 54.9702 148.373 53.9283C149.414 52.8865 150 51.4734 150 50V16.6666C150 15.1932 149.414 13.7801 148.373 12.7383C147.331 11.6964 145.918 11.1111 144.444 11.1111C142.971 11.1111 141.558 11.6964 140.516 12.7383C139.474 13.7801 138.889 15.1932 138.889 16.6666V50C138.889 51.4734 139.474 52.8865 140.516 53.9283C141.558 54.9702 142.971 55.5555 144.444 55.5555Z" fill="black"/>
</g>
<defs>
<clipPath id="clip0_152_2134">
<rect width="200" height="200" fill="white"/>
</clipPath>
</defs>
</svg>
