<svg width="201" height="200" viewBox="0 0 201 200" fill="none" xmlns="http://www.w3.org/2000/svg">
<path d="M194.25 88.4375H6.75C6.75 88.4375 12.375 140.313 22.0625 154.688C33 170.625 58.9375 193.75 100.5 193.75C142.062 193.75 168 170.625 178.938 154.688C188.625 140.313 194.25 88.4375 194.25 88.4375Z" fill="#E0DAC6"/>
<path d="M194.25 88.4375C194.25 106.25 152.375 120.625 100.5 120.625C48.625 120.937 6.75 106.25 6.75 88.4375C6.75 70.625 48.625 56.25 100.5 56.25C152.375 56.25 194.25 70.625 194.25 88.4375Z" fill="#F9F3D9"/>
<path d="M191.125 87.8125C191.125 104.062 150.5 117.187 100.5 117.187C50.5 117.187 9.875 104.062 9.875 87.8125C9.875 71.5625 50.5 58.4375 100.5 58.4375C150.5 58.75 191.125 71.875 191.125 87.8125Z" fill="#E0DAC6"/>
<path d="M100.5 68.75C55.8125 68.75 18.625 79.0625 11.125 92.8125C18.625 106.563 55.8125 117.188 100.5 117.188C145.188 117.188 182.375 106.875 189.875 92.8125C182.375 79.375 145.188 68.75 100.5 68.75Z" fill="#F2B200"/>
<path d="M100.5 146.25C141.75 146.25 176.438 136.25 189.25 122.187C190.812 114.687 191.75 107.188 192.688 101.25C184.562 116.25 146.438 127.5 100.5 127.5C54.5625 127.5 16.4375 116.25 8.3125 101.25C9.25 107.188 10.1875 114.687 11.75 122.187C24.5625 136.25 59.25 146.25 100.5 146.25Z" fill="#B3682A"/>
<path d="M149.25 106.562L148.625 98.75L151.125 98.4375C163.625 97.5 168.625 92.8125 168.625 89.375C168.938 85.3125 164.25 81.5625 157.375 80.3125C155.5 80 153.625 79.6875 151.75 79.6875C145.5 79.6875 140.5 81.5625 134.25 83.75C126.125 86.875 117.063 90 103.625 90C95.8126 90 87.0626 87.5 78.0001 84.6875C68.9376 81.875 59.2501 79.0625 50.8126 79.0625C44.8751 79.0625 39.8751 80.3125 35.5001 83.125C33.0001 84.6875 29.2501 87.5 30.1876 90C32.0626 94.0625 43.3126 98.125 53.0001 98.125C54.2501 98.125 55.1876 98.125 56.4376 97.8125L58.6251 97.5L59.8751 105.312L57.0626 106.25C55.8126 106.25 54.5626 106.562 53.0001 106.562C42.6876 106.562 26.4376 102.5 22.6876 93.75C21.4376 90.625 20.5001 84.0625 31.1251 77.5C36.7501 74.0625 43.3126 72.1875 50.8126 72.1875C60.8126 72.1875 71.4376 75.3125 80.5001 78.125C88.9376 80.625 97.0626 83.125 103.625 83.125C115.5 83.125 123.938 80 131.438 77.1875C137.688 75 144.25 72.5 151.75 72.5C154.25 72.5 156.438 72.8125 158.938 73.125C169.875 75.3125 177.063 82.1875 176.75 90.3125C176.438 97.1875 169.563 105.312 151.75 106.562H149.25Z" fill="#FFE299"/>
<path d="M124.562 105.625C117.375 105.625 110.188 104.063 103 100.625C87.0625 93.4375 74.25 91.875 66.125 91.875C56.125 91.875 50.5 94.0625 48.3125 95L46.4375 95.9375L42.6875 89.0625L44.875 88.125C47.6875 86.875 55.5 83.75 68.625 84.375C80.8125 84.6875 93.625 87.8125 106.438 93.75C112.688 96.5625 118.625 98.125 124.562 98.125C134.875 98.125 143.938 93.4375 149.562 85.3125L150.812 83.4375L157.688 87.5L156.125 89.6875C150.5 97.8125 142.375 103.125 132.688 105C130.188 105.312 127.375 105.625 124.562 105.625Z" fill="#FFE299"/>
<path d="M103.937 110.625L102.062 109.687C96.75 107.187 91.4375 105.938 85.5 105.938C75.8125 105.938 68.9375 109.687 68.9375 109.687L67.0625 110.625L62.6875 104.062L64.875 102.813C65.8125 102.188 73.9375 98.125 85.1875 98.125C92.0625 98.125 98.9375 99.6875 105.188 102.813L107.375 103.75L103.937 110.625ZM70.5 39.375L66.75 32.1875L68.9375 30.9375C76.125 27.1875 79.5625 13.4375 79.5625 13.125L80.1875 10.9375L88 13.125L87.375 15.3125C87.0625 15.9375 83 32.5 72.6875 38.125L70.5 39.375ZM104.25 44.375L97.6875 40L98.9375 38.125C98.9375 38.125 103.938 30.3125 105.188 23.125L105.5 20.9375L113.625 22.1875L113 24.0625C111.438 33.4375 105.812 42.1875 105.5 42.5L104.25 44.375ZM91.75 41.25L85.1875 36.875L86.4375 35C86.4375 35 91.4375 27.1875 92.6875 20L93 17.8125L101.125 18.75L100.812 20.9375C99.25 30.3125 93.625 39.0625 93.3125 39.375L91.75 41.25Z" fill="#FFE299"/>
<path d="M194.25 37.5L67.375 13.4375L66.75 16.875L193 47.1875L194.25 37.5ZM187.062 65.9375L66.4375 20.3125L65.1875 23.4375L183.938 75L187.062 65.9375Z" fill="#D3976E"/>
<path d="M79.2501 38.75C76.7501 38.75 74.5626 37.5 72.6876 35.3125C68.0001 29.6875 70.1876 18.75 73.0001 13.125C75.5001 7.5 78.6251 6.25 80.8126 6.25C83.0001 6.25 84.8751 7.1875 86.1251 8.75C88.0001 11.25 87.6876 14.375 87.3751 15.3125L80.5001 15C80.5001 15.3125 79.8751 16.5625 79.8751 16.5625C77.6876 21.875 77.3751 28.4375 78.6251 30.3125C78.9376 30.625 78.9376 30.625 79.2501 30.625C79.2501 30.625 79.5626 30.9375 79.8751 30L87.3751 32.8125C85.8126 36.25 83.3126 38.125 80.1876 38.75H79.2501Z" fill="#FFE299"/>
<path d="M92.6877 43.4375C90.1877 43.4375 87.6877 42.1875 86.1252 40C79.5627 31.25 83.3127 19.6875 87.0627 14.375C89.8752 10.625 92.3752 9.6875 93.9377 9.6875C94.5627 9.6875 95.1877 9.6875 95.5002 10C97.6877 10.9375 101.125 12.5 100.5 19.6875L93.3127 18.4375C91.4377 22.1875 89.8752 31.5625 92.6877 35.625L99.8752 38.75C98.6252 41.5625 96.4377 43.4375 93.6252 43.75C93.0002 43.4375 93.0002 43.4375 92.6877 43.4375Z" fill="#FFE299"/>
<path d="M105.188 78.4374C107.688 71.8749 101.438 60.9374 99.2503 55.6249C95.1878 45.6249 95.8128 19.0624 103.313 14.0624C105.5 12.4999 108 12.1874 110.188 13.4374C112.375 14.3749 114.563 18.1249 113.938 22.4999L106.75 20.9374C104.875 26.5624 103.625 46.2499 107.375 54.6874C110.188 60.6249 115.5 69.9999 112.375 79.9999C110.188 86.2499 103.313 83.1249 105.188 78.4374Z" fill="#FFE299"/>
</svg>
